<svg xmlns="http://www.w3.org/2000/svg" viewBox="0 0 1260 240" width="1260" height="240">
    <style type="text/css">.a{fill:url(#a)}.b{fill:url(#b)}.c{fill:#ffffff}</style>
    <linearGradient gradientUnits="userSpaceOnUse" id="a" x1="9.332" x2="150.667" y1="9.332" y2="150.667">
        <stop offset="0" stop-color="#ffcbc7"/>
        <stop offset=".03" stop-color="#ffc4bf"/>
        <stop offset=".37" stop-color="#ff847c"/>
        <stop offset=".66" stop-color="#ff554a"/>
        <stop offset=".87" stop-color="#ff382b"/>
        <stop offset="1" stop-color="#ff2d20"/>
    </linearGradient>
    <path class="a" d="M128.2 160h-96.4c-17.5 0-31.8-14.3-31.8-31.8v-96.4c0-17.5 14.3-31.8 31.8-31.8h96.5c17.4 0 31.7 14.3 31.7 31.8v96.5c0 17.4-14.3 31.7-31.8 31.7z"/>
    <path class="c" d="M106.4 71.2c.9-3 1.4-5.3 2-7.6l-15.9-2.6c-.3 1.2-.7 3.3-1.6 6.2-5.4-.7-11-.8-16.8-.3.1-3.3.4-6.6.7-9.8h17.7v-13h-15.6c.8-3.3 1.4-5.3 2.1-7.2l-15.5-4c-1.1 3.3-2.1 6.5-3 11.2h-17.7v13h15.8c-.4 4.2-.7 8.5-.7 12.9-17.5 5.6-24.9 16.1-24.9 25.7 0 11.3 10.3 21.2 26.6 19.9 20.2-1.6 33.7-14.8 41.6-31 8.2 4.1 11.6 10.9 8.5 17.3-2.9 5.9-11.3 11.5-27.3 11.2v14c17.8.2 35.3-5.6 42.2-19.7 6.7-13.9-1-29-18.2-36.2zm-20.9 9.5c-2.5 4.8-5.8 9.6-10.1 13.4-.6-4-1.1-8.4-1.3-13.1 3.9-.5 7.8-.5 11.4-.3zm-27.3 4.5c.4 5.9 1.2 11.3 2.3 16.2-14.4 2.3-15-10-2.3-16.2z"/>
    <linearGradient gradientUnits="userSpaceOnUse" id="b" x1="89.332" x2="230.667" y1="89.332" y2="230.667">
        <stop offset="0" stop-color="#e6291d"/>
        <stop offset=".16" stop-color="#e72d21"/>
        <stop offset=".33" stop-color="#e9392e"/>
        <stop offset=".51" stop-color="#ed4d42"/>
        <stop offset=".68" stop-color="#f26860"/>
        <stop offset=".86" stop-color="#f98b85"/>
        <stop offset="1" stop-color="#ffaba6"/>
    </linearGradient>
    <path class="b" d="M208.2 240h-96.5c-17.4 0-31.7-14.3-31.7-31.8v-96.5c0-17.4 14.3-31.7 31.8-31.7h96.5c17.5 0 31.8 14.3 31.8 31.8v96.5c-.1 17.4-14.4 31.7-31.9 31.7z"/>
    <path class="c" d="M131.1 201.2v-82.4h20.9v64.8h42.8v17.6h-63.7z"/>
    <path d="M330 156.2v-73.2h12.3v73.2h-12.3zM404 106v50.2h-12.2v-8.1c-1.5 2.8-3.7 5-6.6 6.5-2.9 1.6-6.1 2.3-9.8 2.3-4.4 0-8.3-1.1-11.6-3.2-3.4-2.1-6-5.1-7.9-9.1-1.9-3.9-2.8-8.5-2.8-13.6 0-5.2.9-9.8 2.8-13.8s4.5-7.1 7.9-9.3c3.4-2.2 7.2-3.3 11.5-3.3 3.6 0 6.9.8 9.8 2.3 2.9 1.6 5 3.7 6.6 6.5v-7.4h12.3zm-15.6 37c2.3-2.9 3.4-6.9 3.4-12 0-5.3-1.1-9.4-3.4-12.2-2.3-2.8-5.5-4.3-9.7-4.3-4.1 0-7.3 1.5-9.6 4.4-2.3 3-3.4 7-3.4 12.3 0 5.2 1.1 9.2 3.4 11.9 2.3 2.8 5.5 4.2 9.7 4.2 4.2 0 7.3-1.5 9.6-4.3zM449.6 105.6l-.1 11.3c-2.1-.9-4.3-1.3-6.6-1.3-4.2 0-7.5 1.2-9.7 3.7-2.2 2.5-3.3 5.7-3.3 9.7v27.2h-12.3v-36c0-5.3-.3-10-.8-14.2h11.6l1 8.9c1.3-3.2 3.2-5.7 6-7.5 2.7-1.7 5.8-2.6 9.3-2.6 1.8 0 3.5.2 4.9.8zM503.6 106v50.2h-12.2v-8.1c-1.5 2.8-3.7 5-6.6 6.5-2.9 1.6-6.1 2.3-9.8 2.3-4.4 0-8.3-1.1-11.6-3.2-3.4-2.1-6-5.1-7.9-9.1-1.9-3.9-2.8-8.5-2.8-13.6 0-5.2.9-9.8 2.8-13.8s4.5-7.1 7.9-9.3c3.4-2.2 7.2-3.3 11.5-3.3 3.6 0 6.9.8 9.8 2.3 2.9 1.6 5 3.7 6.6 6.5v-7.4h12.3zm-15.6 37c2.3-2.9 3.4-6.9 3.4-12 0-5.3-1.1-9.4-3.4-12.2-2.3-2.8-5.5-4.3-9.7-4.3-4.1 0-7.3 1.5-9.6 4.4-2.3 3-3.4 7-3.4 12.3 0 5.2 1.1 9.2 3.4 11.9 2.3 2.8 5.5 4.2 9.7 4.2 4.2 0 7.3-1.5 9.6-4.3zM552.4 106.1h12.3l-22 50.1h-10.8l-21.7-50.1h13l14.4 36 14.8-36zM614.3 131.7h-34.6c.3 5.4 1.6 9.3 4 11.9 2.4 2.6 6 3.8 10.8 3.8 5.5 0 10.6-1.8 15.3-5.4l3.6 8.6c-2.4 1.9-5.3 3.5-8.8 4.6-3.5 1.2-7 1.7-10.6 1.7-8.2 0-14.7-2.3-19.4-7-4.7-4.6-7.1-11-7.1-19.1 0-5.1 1-9.6 3.1-13.6s4.9-7.1 8.7-9.3c3.7-2.2 7.9-3.3 12.6-3.3 6.9 0 12.4 2.2 16.4 6.7 4 4.5 6 10.6 6 18.5v1.9zm-30.2-15.1c-2.1 2-3.4 4.8-4 8.5h23.4c-.4-3.8-1.5-6.6-3.4-8.6-1.9-1.9-4.5-2.9-7.8-2.9-3.4 0-6.1 1-8.2 3zM624.8 156.2v-73.2h12.3v73.2h-12.3zM650.9 134.3v-9.9h29.9v9.9h-29.9zM710.2 115.3v22.5c0 5.9 2.8 8.9 8.3 8.9 1.5 0 3.2-.3 5-.8v9.8c-2.2.8-4.8 1.2-8 1.2-5.7 0-10.1-1.6-13.1-4.8-3.1-3.2-4.6-7.8-4.6-13.7v-23.1h-9.7v-9.3h9.7v-12.3l12.4-4.2v16.5h13.3v9.3h-13.3zM764.1 105.6l-.1 11.3c-2.1-.9-4.3-1.3-6.6-1.3-4.2 0-7.5 1.2-9.7 3.7-2.2 2.5-3.3 5.7-3.3 9.7v27.2h-12.3v-36c0-5.3-.3-10-.8-14.2h11.6l1 8.9c1.3-3.2 3.2-5.7 6-7.5 2.7-1.7 5.8-2.6 9.3-2.6 1.9 0 3.5.2 4.9.8zM818.1 106v50.2h-12.2v-8.1c-1.5 2.8-3.7 5-6.6 6.5-2.9 1.6-6.1 2.3-9.8 2.3-4.4 0-8.3-1.1-11.6-3.2-3.4-2.1-6-5.1-7.9-9.1-1.9-3.9-2.8-8.5-2.8-13.6 0-5.2.9-9.8 2.8-13.8s4.5-7.1 7.9-9.3c3.4-2.2 7.2-3.3 11.5-3.3 3.6 0 6.9.8 9.8 2.3 2.9 1.6 5 3.7 6.6 6.5v-7.4h12.3zm-15.6 37c2.3-2.9 3.4-6.9 3.4-12 0-5.3-1.1-9.4-3.4-12.2-2.3-2.8-5.5-4.3-9.7-4.3-4.1 0-7.3 1.5-9.6 4.4-2.3 3-3.4 7-3.4 12.3 0 5.2 1.1 9.2 3.4 11.9s5.5 4.2 9.7 4.2c4.2 0 7.4-1.5 9.6-4.3zM878.4 125.4v30.8h-12.4v-30.2c0-4-.8-6.9-2.3-8.7-1.5-1.8-3.9-2.7-7.1-2.7-3.8 0-6.8 1.2-9.2 3.6-2.3 2.4-3.5 5.6-3.5 9.6v28.4h-12.3v-36c0-5.3-.3-10-.8-14.2h11.6l.9 8.3c1.7-3 4.1-5.4 7-7.1 3-1.7 6.3-2.5 10-2.5 12.1 0 18.1 6.9 18.1 20.7zM888.4 150.6l3.5-8.8c5.4 4 11.5 6 18.4 6 3 0 5.3-.5 6.9-1.5 1.6-1 2.4-2.4 2.4-4.2 0-1.5-.6-2.7-1.7-3.6-1.1-.9-3.1-1.7-5.8-2.3l-8.4-1.9c-9.2-2-13.7-6.7-13.7-14 0-3 .9-5.8 2.6-8.1 1.7-2.4 4.1-4.2 7.3-5.5 3.1-1.3 6.7-2 10.8-2 3.6 0 7 .5 10.3 1.6 3.3 1.1 6.2 2.7 8.8 4.7l-3.7 8.5c-5-3.7-10.2-5.6-15.5-5.6-2.9 0-5.1.5-6.7 1.6-1.6 1.1-2.4 2.5-2.4 4.4 0 1.5.5 2.6 1.4 3.5 1 .9 2.6 1.6 4.9 2.2l8.6 1.9c5 1.1 8.6 2.9 10.9 5.2 2.3 2.4 3.4 5.4 3.4 9.2 0 4.6-1.9 8.3-5.6 11-3.7 2.7-8.8 4.1-15.2 4.1-8.9 0-16.1-2.1-21.5-6.4zM941.5 156.2v-73.2h12.3v73.2h-12.3zM1015.5 106v50.2h-12.2v-8.1c-1.5 2.8-3.7 5-6.6 6.5-2.9 1.6-6.1 2.3-9.8 2.3-4.4 0-8.3-1.1-11.6-3.2-3.4-2.1-6-5.1-7.9-9.1-1.9-3.9-2.8-8.5-2.8-13.6 0-5.2.9-9.8 2.8-13.8s4.5-7.1 7.9-9.3c3.4-2.2 7.2-3.3 11.5-3.3 3.6 0 6.9.8 9.8 2.3 2.9 1.6 5 3.7 6.6 6.5v-7.4h12.3zm-15.6 37c2.3-2.9 3.4-6.9 3.4-12 0-5.3-1.1-9.4-3.4-12.2-2.3-2.8-5.5-4.3-9.7-4.3-4.1 0-7.3 1.5-9.6 4.4-2.3 3-3.4 7-3.4 12.3 0 5.2 1.1 9.2 3.4 11.9 2.3 2.8 5.5 4.2 9.7 4.2 4.2 0 7.4-1.5 9.6-4.3zM1044.9 115.3v22.5c0 5.9 2.8 8.9 8.3 8.9 1.5 0 3.2-.3 5-.8v9.8c-2.2.8-4.8 1.2-8 1.2-5.7 0-10.1-1.6-13.1-4.8-3.1-3.2-4.6-7.8-4.6-13.7v-23.1h-9.7v-9.3h9.7v-12.3l12.4-4.2v16.5h13.3v9.3h-13.3zM1114.8 106v50.2h-12.2v-8.1c-1.5 2.8-3.7 5-6.6 6.5-2.9 1.6-6.1 2.3-9.8 2.3-4.4 0-8.3-1.1-11.6-3.2-3.4-2.1-6-5.1-7.9-9.1-1.9-3.9-2.8-8.5-2.8-13.6 0-5.2.9-9.8 2.8-13.8s4.5-7.1 7.9-9.3c3.4-2.2 7.2-3.3 11.5-3.3 3.6 0 6.9.8 9.8 2.3 2.9 1.6 5 3.7 6.6 6.5v-7.4h12.3zm-15.6 37c2.3-2.9 3.4-6.9 3.4-12 0-5.3-1.1-9.4-3.4-12.2-2.3-2.8-5.5-4.3-9.7-4.3-4.1 0-7.3 1.5-9.6 4.4-2.3 3-3.4 7-3.4 12.3 0 5.2 1.1 9.2 3.4 11.9 2.3 2.8 5.5 4.2 9.7 4.2 4.2 0 7.4-1.5 9.6-4.3zM1168.6 107.9c3.3 2.2 6 5.2 7.8 9.1 1.9 3.9 2.8 8.5 2.8 13.6 0 5.2-.9 9.8-2.8 13.8s-4.5 7.1-7.9 9.3c-3.4 2.2-7.2 3.3-11.5 3.3-3.7 0-7-.8-9.9-2.4-2.9-1.6-5.1-3.8-6.5-6.7v8.3h-12.2v-73.2h12.3v30.5c1.5-2.8 3.7-5 6.6-6.5 2.9-1.6 6.1-2.3 9.8-2.3 4.3 0 8.2 1.1 11.5 3.2zm-5.3 35c2.3-2.9 3.4-7 3.4-12.2 0-5.2-1.1-9.2-3.4-12-2.3-2.8-5.5-4.2-9.7-4.2-4.2 0-7.4 1.4-9.7 4.3-2.3 2.9-3.4 6.9-3.4 12.1 0 5.3 1.1 9.4 3.4 12.2 2.3 2.8 5.5 4.2 9.8 4.2 4.1 0 7.3-1.5 9.6-4.4zM1190.1 156.2v-73.2h12.3v73.2h-12.3zM1260 131.7h-34.6c.3 5.4 1.6 9.3 4 11.9 2.4 2.6 6 3.8 10.8 3.8 5.5 0 10.6-1.8 15.3-5.4l3.6 8.6c-2.4 1.9-5.3 3.5-8.8 4.6-3.5 1.2-7 1.7-10.6 1.7-8.2 0-14.7-2.3-19.4-7-4.7-4.6-7.1-11-7.1-19.1 0-5.1 1-9.6 3.1-13.6s4.9-7.1 8.7-9.3c3.7-2.2 7.9-3.3 12.6-3.3 6.9 0 12.4 2.2 16.4 6.7 4 4.5 6 10.6 6 18.5v1.9zm-30.2-15.1c-2.1 2-3.4 4.8-4 8.5h23.4c-.4-3.8-1.5-6.6-3.4-8.6-1.9-1.9-4.5-2.9-7.8-2.9-3.4 0-6.1 1-8.2 3z"/>
</svg>
